<svg width="256" height="256" viewBox="0 0 256 256" fill="none" xmlns="http://www.w3.org/2000/svg">
  <rect x="24" y="24" width="208" height="208" rx="36" fill="#F8FAFF"/>
  <path d="M66 175V96.5L97.5 120.5V175H66Z" fill="#4285F4"/>
  <path d="M159 175V120.5L190 96.5V175H159Z" fill="#34A853"/>
  <path d="M66 97C66 84.2975 80.4416 77.0693 90.5682 84.647L128 112.667L165.432 84.647C175.558 77.0693 190 84.2975 190 97V98L128 144L66 98V97Z" fill="#EA4335"/>
  <path d="M159 120.5V97.5L190 121V97C190 84.2975 175.558 77.0693 165.432 84.647L146 99.186V130.35L159 120.5Z" fill="#FBBC05"/>
  <path d="M66 121L97.5 144.8V120.5L66 97.5V121Z" fill="#C5221F" fill-opacity="0.16"/>
</svg>
